<?xml version="1.0" encoding="UTF-8" standalone="no"?>
<!-- Created with Inkscape (http://www.inkscape.org/) -->

<svg
   version="1.1"
   id="svg1"
   width="230.14983"
   height="47.999374"
   viewBox="0 0 230.14982 47.999374"
   sodipodi:docname="logo.svg"
   inkscape:version="1.3.2 (091e20e, 2023-11-25, custom)"
   xmlns:inkscape="http://www.inkscape.org/namespaces/inkscape"
   xmlns:sodipodi="http://sodipodi.sourceforge.net/DTD/sodipodi-0.dtd"
   xmlns="http://www.w3.org/2000/svg"
   xmlns:svg="http://www.w3.org/2000/svg">
  <defs
     id="defs1">
    <rect
       x="19.79899"
       y="24.041632"
       width="226.62772"
       height="29.698484"
       id="rect3" />
  </defs>
  <sodipodi:namedview
     id="namedview1"
     pagecolor="#ffffff"
     bordercolor="#000000"
     borderopacity="0.25"
     inkscape:showpageshadow="2"
     inkscape:pageopacity="0.0"
     inkscape:pagecheckerboard="0"
     inkscape:deskcolor="#d1d1d1"
     inkscape:zoom="2"
     inkscape:cx="-13"
     inkscape:cy="4.75"
     inkscape:window-width="1920"
     inkscape:window-height="991"
     inkscape:window-x="-9"
     inkscape:window-y="-9"
     inkscape:window-maximized="1"
     inkscape:current-layer="g1" />
  <g
     inkscape:groupmode="layer"
     inkscape:label="Image"
     id="g1"
     transform="translate(-229.174,-49.56573)">
    <g
       id="g2"
       transform="matrix(0.14732887,0,0,0.14787236,406.57505,40.772461)"
       style="stroke:#780000;stroke-width:7.22038;stroke-dasharray:none;stroke-opacity:1">
      <path
         style="fill:#780000;fill-opacity:1;stroke:#780000;stroke-width:7.22038;stroke-dasharray:none;stroke-opacity:1"
         d="M 322.32048,132.37769 C 295.1738,90.270889 213.65301,64.149471 211.87891,64.839649 c -2.42267,3.852899 -8.32992,19.251855 -9.86029,23.559563 -3.67546,-4.553807 -5.15345,-2.223267 -4.84517,2.687742 1.39101,4.202213 -0.79707,8.512559 -0.49313,12.563676 1.96172,4.36165 5.56917,9.27577 4.66037,14.02495 -20.35373,23.20272 -16.05306,17.04714 -23.9341,31.28944 -9.20367,16.6326 -12.90548,34.02056 -16.74952,52.61326 -0.37314,3.50118 8.22323,20.09524 15.85209,25.64649 -2.36648,8.49746 -7.77518,15.57864 -10.88548,23.78878 -4.398,10.54492 -10.29481,20.53063 -13.51404,31.51545 -0.16082,9.84435 12.78797,13.60281 20.6196,18.20404 -4.07644,2.94592 -8.15292,5.89188 -12.22934,8.83777 3.43694,1.853 1.81789,8.7478 4.51958,8.84601 2.97378,-1.71657 7.35571,1.29757 8.09317,4.09748 0.41708,3.71725 -0.091,8.11433 4.71584,8.60479 -14.61431,46.03914 6.12319,51.21309 39.82473,48.25969 29.88205,-8.9082 58.58266,-9.23238 103.06403,-58.76963 8.1622,-44.90528 66.91077,-85.4187 1.60323,-188.23146 z"
         id="path27"
         sodipodi:nodetypes="ccccccscccccccccccc" />
      <path
         id="path1"
         style="fill:none"
         d="M 354.42398,221.76529 A 158.68983,158.68983 0 0 1 195.73415,380.45512 158.68983,158.68983 0 0 1 37.044312,221.76529 158.68983,158.68983 0 0 1 195.73415,63.075455 158.68983,158.68983 0 0 1 354.42398,221.76529 Z" />
    </g>
    <path
       style="font-size:13.3333px;font-family:'Mehr Nastaliq Web';-inkscape-font-specification:'Mehr Nastaliq Web';letter-spacing:0px;baseline-shift:baseline;fill:#780000;stroke-width:1.41328"
       d="m 400.59993,66.886097 q -0.0344,6.463705 -0.17259,7.314799 -0.13797,0.851094 -0.41404,1.483663 -0.27603,0.632569 -0.58656,1.046613 -0.31054,0.402544 -0.52906,0.368041 -0.20703,-0.0345 -0.34504,-0.149507 -0.13797,-0.126524 -0.12649,-0.264531 0.0124,-0.138006 0.24153,-0.437047 0.23003,-0.287531 0.32204,-0.713078 0.10352,-0.437048 0.16093,-3.588391 0.0576,-3.139844 0.34504,-4.002439 0.29903,-0.862594 0.65556,-1.713686 0.36806,-0.851093 0.96612,-1.771194 0.54056,-0.736081 3.79541,-3.185848 3.25485,-2.438267 4.05994,-3.162846 0.80509,-0.724579 0.8281,-0.724579 0.023,0 0.023,0.01148 v 0.01148 q 0,0.0345 -0.42555,0.897098 -0.42554,0.851094 -0.81658,1.357148 -0.37955,0.506056 -0.88559,1.023612 -3.39288,2.771802 -4.78453,3.806915 -1.38016,1.035114 -1.74819,1.311144 -0.50606,0.264529 -0.56357,1.081119 z m -9.28151,11.754285 q 0.9316,-0.874097 1.23063,-1.046616 0.1726,-0.103504 0.35654,-0.103504 0.25303,0 0.52906,0.172525 0.115,0.0805 0.27603,0.172526 0.16094,0.0805 0.31053,0.069 0.47156,0.023 1.01212,-0.966107 0.26453,-0.345037 0.49456,-0.322034 0.23001,0.01148 0.24151,0.27603 0.0124,0.264529 0.1726,0.333536 0.0576,0.023 0.115,0.023 0.12649,0 0.29904,-0.092 0.26453,-0.149508 0.37955,-0.241528 0.11501,-0.092 0.21853,-0.253026 0.115,-0.161025 0.29903,-0.471553 0.17242,-0.310534 0.41404,-0.36804 0.0459,-0.01148 0.0805,-0.01148 0.16094,0 0.18403,0.207022 0.023,0.264529 0.1726,0.322035 0.0691,0.0345 0.14945,0.0345 0.092,0 0.19553,-0.046 0.19551,-0.069 0.40254,-0.218524 0.13797,-0.09201 0.25303,-0.09201 0.0574,0 0.115,0.023 0.14945,0.0805 0.26453,0.230025 0.0576,0.0805 0.0576,0.195521 0,0.09201 -0.0459,0.218523 -0.10352,0.276031 -0.52904,0.632569 -0.42556,0.345038 -1.02362,0.655572 -0.59807,0.310535 -0.9201,0.44855 -0.32203,0.138024 -1.05812,0.391043 -0.73607,0.241526 -1.0351,0.299032 -0.29905,0.069 -0.63259,0.299032 -0.33353,0.230025 -0.77057,0.460051 -0.26453,0.149524 -0.49456,0.149524 -0.14945,0 -0.28753,-0.069 -0.33353,-0.161008 -0.49456,-0.264528 -0.115,-0.069 -0.25303,-0.069 -0.0576,0 -0.115,0.01148 -0.19553,0.046 -0.40254,0.18402 -0.19553,0.138024 -0.37955,0.26453 -0.17242,0.126506 -0.34504,0.172526 -0.17259,0.046 -0.39103,-0.207024 -0.21853,-0.253027 -0.0691,-0.437048 0.10352,-0.092 1.02362,-0.966104 z m 1.40314,-9.86808 q 0.0124,0.023 0.0124,0.115006 0,0.207022 -0.18403,0.586563 -0.18402,0.379541 -0.41405,0.667073 -0.23001,0.299034 -0.49454,0.517556 -0.26453,0.230026 -0.48306,0.276031 -0.023,0 -0.13797,-0.0805 -0.11501,-0.0805 -0.26453,-0.207022 -0.16094,-0.126506 -0.34506,-0.264528 -0.18401,-0.149508 -0.34503,-0.287532 -0.14945,-0.138024 -0.25303,-0.241527 -0.10352,-0.09201 -0.10352,-0.115006 0,-0.287531 0.65556,-1.334145 0.51756,-0.816588 0.8396,-0.816588 0.0805,0 0.14945,0.0575 0.33353,0.287532 0.62107,0.494554 0.27603,0.207022 0.49456,0.391042 0.23001,0.172526 0.25301,0.241527 z m 0.33355,1.598674 q 0.37954,0.069 1.47216,1.069618 0.14946,0.230025 0.14946,0.345038 v 0.103505 q -0.12649,0.782087 -1.47216,2.024222 -0.16094,0.069 -0.26453,0.069 -0.23003,0 -1.46066,-0.9201 l -0.1726,-0.069 q -0.18402,0 -1.46067,1.46066 -0.092,0.092 -0.25302,0.161007 -0.34505,0 -1.55268,-1.058116 l -0.10352,-0.138006 v -0.069 q 0.0459,-0.483053 1.31114,-2.127732 0.25303,-0.230025 0.36805,-0.230025 h 0.0344 q 0.21852,0 1.35715,1.058116 0.20701,0.161025 0.29903,0.161025 h 0.0691 q 0.66706,-0.644071 1.24213,-1.552671 0.23002,-0.287532 0.43705,-0.287532 z m -13.82451,6.383199 q -0.57506,0.701576 -0.81659,0.839591 -0.23003,0.126507 -0.43705,0.103505 -1.04661,-0.609568 -1.58717,-1.621678 -0.0124,-0.023 -0.0124,-0.0575 0,-0.207022 0.40253,-0.678573 0.46006,-0.529058 0.9776,-1.161628 0.32205,-0.402544 0.52906,-0.402544 0.12649,0 0.20703,0.138025 0.69007,0.9201 1.34565,1.414654 0.13797,0.103505 0.14946,0.241527 0.023,0.126506 -0.092,0.310533 -0.26453,0.402544 -0.66707,0.874096 z m 5.34808,2.65679 q 0.0124,0.333537 0.0459,0.425547 0.092,0.287531 0.20703,0.437047 0.27603,0.402544 0.48306,0.36804 0.21851,-0.0345 1.0236,-0.402544 0.80509,-0.379541 1.00062,-0.931601 0.0124,-0.092 0.0124,-0.172526 0,-0.517556 -0.43705,-0.851093 -0.16094,-0.126506 -0.32204,-0.172526 -0.26453,-0.0575 -0.41403,-0.0575 -0.67859,-0.023 -1.11563,0.35654 -0.21853,0.207022 -0.28753,0.356538 -0.19553,0.333538 -0.19553,0.64407 z m 3.04784,1.46066 q 0.16094,-0.0345 0.37953,-0.103505 0.62107,-0.195522 1.40316,-0.644072 0.78209,-0.46005 1.40316,-0.966104 0.12648,-0.0345 0.24152,-0.0345 0.27604,0 0.41404,0.195522 0.092,0.126524 0.092,0.241527 0,0.126506 -0.12649,0.253026 -0.42553,0.517557 -1.04662,0.98911 -0.62106,0.46005 -1.33413,0.862594 -0.71309,0.402544 -1.70219,0.724579 -0.67858,0.230025 -1.26515,0.310534 -0.47154,0.092 -0.82807,0.103505 -0.55206,0.023 -0.79359,0.149525 -0.29904,0.161007 -1.01212,0.448548 -1.31114,0.529058 -3.69191,0.931602 -2.36925,0.391042 -4.55448,0.483052 -1.27665,0.046 -2.19675,0.046 -0.65556,0 -1.12712,-0.023 -1.15013,-0.0575 -1.89772,-0.276029 -0.9546,-0.287532 -1.36863,-0.839593 -0.33355,-0.563561 -0.36806,-1.265139 -0.0459,-0.966104 0.70159,-3.519383 0.20701,-0.678575 0.42554,-0.667073 0.18402,0.01148 0.18402,0.276029 0,0.0575 -0.0124,0.126524 -0.0574,0.391042 -0.0806,0.690075 -0.0124,0.138025 -0.0124,0.276029 0,0.747582 0.37953,1.173129 0.27603,0.35654 0.8856,0.609566 0.62106,0.253028 1.56416,0.35654 0.94312,0.09201 2.61078,0.126506 1.67919,0.023 3.86444,-0.161025 2.18524,-0.195522 3.39287,-0.437049 1.0236,-0.207023 1.27663,-0.287532 0.0576,-0.01148 0.0806,-0.264528 0,-0.09201 0.0344,-0.253028 0.0459,-0.368039 0.19551,-0.839592 0.14945,-0.414044 0.40255,-0.885597 0.25303,-0.483051 0.52904,-0.874094 0.16094,-0.253028 0.55207,-0.667073 0.51756,-0.483053 0.89711,-0.655572 0.42554,-0.207022 0.73607,-0.207022 h 0.0459 q 0.20703,0 0.47156,0.138006 0.40254,0.218525 0.59806,0.747582 0.11501,0.35654 0.11501,0.690077 v 0.356538 q 0,0.483054 -0.18401,1.081119 -0.16094,0.471551 -0.51756,1.242136 -0.0344,0.0805 -0.0344,0.138024 0,0.023 0.0124,0.046 0.023,0.046 0.26453,0.0575 z m -21.15082,3.542386 z m -2.16223,-3.220352 q -0.78207,1.759694 -1.15012,1.690685 0.13797,-0.529057 0.26453,-1.150125 0.12649,-0.621067 0.18402,-1.19613 0.0691,-0.575063 0.13798,-2.714297 0.0576,-2.139233 0.092,-2.817808 0.0344,-0.678575 0.10352,-1.219133 0.0805,-0.552061 0.40255,-1.564172 0.32204,-1.02361 0.81658,-2.173736 0.023,-0.01148 0.0459,-0.01148 0.0574,0 0.0806,0.069 0.0344,0.115006 0.023,0.161008 0,0.0345 -0.0691,0.333537 -0.0691,0.310535 -0.13797,1.035113 v 2.829309 q 0,0.609566 -0.11501,3.84142 -0.0124,0.529057 -0.19553,1.36865 -0.17242,0.828089 -0.48306,1.518165 z m -4.45099,-10.489146 q 0.42555,-1.506664 0.63256,-1.725188 0.023,-0.023 0.0344,-0.023 0.10352,0 0.10352,0.724578 0,0.345038 -0.023,0.862595 0.0124,3.57689 0.0124,5.5091 0,1.932213 -0.0124,2.231245 -0.0344,0.598066 -0.11501,1.115622 -0.0691,0.506056 -0.25301,1.127123 -0.18403,0.621068 -0.56356,1.380151 -0.36805,0.747581 -0.8741,1.426156 -0.50606,0.678573 -1.21914,1.391651 -0.70157,0.713079 -1.15013,0.966107 -0.44854,0.253028 -0.65556,0.253028 -2.01272,-0.966107 -2.31176,-1.886207 -0.0459,-0.126506 -0.0459,-0.218525 0,-0.368038 0.62107,-0.402544 0.16093,0 0.37953,0.01148 0.50606,-0.759084 0.63257,-1.104121 0.13797,-0.345038 0.24153,-0.793586 0.26453,-1.150126 0.26453,-3.427374 0,-0.345038 -0.0124,-0.724581 v -2.449767 q 1.23063,-4.163455 1.36866,-4.151953 0.14945,0 0.13797,0.333536 0,0.322034 -0.0574,1.01211 -0.0691,0.701578 -0.115,3.645898 v 3.438877 q -0.10353,0.667072 -0.20703,1.138625 -0.10352,0.471551 -0.44854,1.19613 -0.33355,0.713078 -0.79359,1.334146 -0.34504,0.460051 -0.34504,0.586564 0,0.046 0.0459,0.046 0.26453,0 0.51756,-0.023 0.25301,-0.0345 0.60956,-0.103505 0.35654,-0.0805 0.75907,-0.195522 0.41406,-0.126506 1.02362,-0.506054 0.60957,-0.379541 0.9086,-0.989109 0.31053,-0.621067 0.31053,-3.645897 V 73.00475 q 0.18403,-0.793585 0.59807,-2.300251 z m -9.40802,4.266967 q 0.18401,-0.793587 0.57507,-2.001219 0.40253,-1.207632 0.54056,-1.610176 0.0459,-0.184019 0.13797,-0.184019 0.092,0 0.092,0.149507 -0.0459,0.379541 -0.0459,1.518166 0,0.655572 0.0124,1.55267 0.0344,1.65618 0.0344,2.38076 0,0.356538 -0.0124,0.483052 -0.023,0.391043 -0.13797,1.207633 -0.10352,0.816589 -0.47155,1.598674 -0.36804,0.782085 -0.9316,1.380151 -0.0574,0.023 -0.12649,0.023 -0.1726,0 -0.37955,-0.218525 -0.14946,-0.161008 -0.14946,-0.299032 0,-0.115005 0.092,-0.218524 0.10352,-0.115006 0.18403,-0.18402 0.092,-0.0575 0.28753,-0.333537 0.20701,-0.287531 0.28753,-0.989107 0,-3.139843 0.0124,-4.255465 z m -6.31421,5.670119 q 0.0124,0.333538 0.0459,0.425547 0.092,0.287532 0.19551,0.437048 0.39105,0.391043 0.51756,0.391043 0,0.01148 0.10352,0.01148 0.27603,-0.069 1.09262,-0.506054 0.81659,-0.44855 1.00062,-0.989109 0,-0.621067 -0.49456,-1.00061 -0.14945,-0.138007 -0.32203,-0.172526 -0.25303,-0.069 -0.41406,-0.069 -0.79357,0 -1.25363,0.483053 -0.20703,0.207022 -0.27603,0.356538 -0.19553,0.333537 -0.19553,0.632569 z m 3.76093,2.415264 q -0.81659,0.35654 -1.58718,0.621069 -0.77059,0.253028 -0.9546,0.276029 -0.18403,0.023 -0.41405,0.126524 -1.66769,0.655572 -2.02422,0.759082 -0.46004,0.138024 -0.8051,0.149507 -0.42553,0.01148 -0.85109,-0.299032 -0.35653,-0.299032 -0.35653,-0.770584 v -0.01148 q 0,-0.724579 0.51756,-1.380151 0.58656,-0.667073 1.04662,-0.667073 0.12648,0 0.65556,0 0.023,-0.103505 0.0459,-0.218524 l 0.023,0.023 q 0.0806,-0.333537 0.21853,-0.770585 0.13797,-0.414044 0.47156,-0.989107 0.18401,-0.35654 0.44854,-0.759084 0.14945,-0.241526 0.55206,-0.64407 0.50606,-0.494553 0.88559,-0.655572 0.41406,-0.207022 0.72459,-0.207022 h 0.0459 q 0.20703,0 0.47154,0.138024 0.39106,0.218523 0.58657,0.73608 0.115,0.35654 0.115,0.690075 v 0.345038 q 0,0.483053 -0.20703,1.069616 -0.21852,0.586565 -0.31053,0.874097 -0.092,0.276029 -0.0691,0.379541 0.023,0.092 0.115,0.0805 0.18403,-0.069 0.72459,-0.253028 0.52906,-0.172526 1.13862,-0.54056 0.60957,-0.379541 1.15013,-0.862594 0.31053,-0.0345 0.48304,0.264529 0.18403,0.299033 -0.20701,0.747581 -0.37955,0.43705 -1.10412,0.920101 -0.71309,0.471552 -1.52966,0.828091 z m -3.12836,-11.248228 h 0.0124 q 0.24153,0.01148 1.04662,0.667072 0.25303,0.207023 0.49456,0.460051 0.12648,0.161025 0.12648,0.287531 v 0.046 q 0,0.276031 -0.39103,0.885597 -0.19553,0.287532 -0.71309,0.828091 -0.39104,0.379541 -0.40254,0.379541 -0.19552,0.069 -0.27603,0.069 -0.36803,-0.069 -1.29965,-0.793588 -0.29903,-0.264528 -0.29903,-0.36804 v -0.0345 q 0,-0.287531 0.50606,-0.931601 0.33353,-0.471553 0.78209,-1.219134 0.23003,-0.276029 0.41404,-0.276029 z m -4.63499,1.161626 q 1.25363,-2.967324 1.28814,-2.967324 h 0.023 q 0.0344,0 0.0576,0.149507 -0.44854,5.302081 -0.49454,7.073273 -0.023,0.713078 -0.023,1.230635 0,0.770584 0.0459,1.092619 0.0574,0.598066 0.25303,1.058116 0.20701,0.46005 0.60956,0.805088 0.41404,0.333537 0.9316,0.494554 0.52906,0.161025 0.62106,0.138024 0.023,0.218525 0.023,0.437047 0,0.63257 -0.18401,1.173129 -0.24153,0.736081 -0.66708,1.046614 -0.41404,0.322036 -0.8396,0.287531 -0.29903,-0.0575 -0.58656,-0.19552 -0.28753,-0.126524 -0.66707,-0.575063 -0.37953,-0.448549 -0.58656,-1.391653 -0.18403,-0.782085 -0.18403,-2.081727 0,-0.264528 0.0124,-0.563562 0.0461,-1.702185 0.36805,-7.211288 z m -9.1665,9.120498 q -0.56356,0.966104 -0.81659,1.403152 -0.25303,0.425547 -0.1726,0.402544 0.48306,-0.18402 1.71369,-0.816589 1.23065,-0.644069 2.10474,-1.173128 0.8741,-0.529057 1.26513,-1.081117 0.092,-0.126524 0.14946,-0.241528 -0.0576,-0.885597 -0.8741,-1.000609 -0.20701,-0.023 -0.39103,-0.023 -0.55207,0 -0.9546,0.230026 -0.54056,0.322034 -1.00062,0.828089 -0.44854,0.506056 -1.0236,1.472162 z m 1.25363,-3.783914 q -0.0459,0.345037 -0.20703,1.023612 0.14946,-0.161025 0.47156,-0.46005 0.32203,-0.299034 0.67857,-0.598066 0.35655,-0.299033 0.95461,-0.609568 0.41404,-0.207022 0.9201,-0.207022 0.21853,0 0.44854,0.0345 0.77059,0.138024 0.97762,0.954605 0.0344,0.138025 0.0344,0.287532 0.0124,0.103505 0.0124,0.218523 0,0.701577 -0.50606,1.690685 -0.34503,0.678575 -1.0466,1.73669 -0.70159,1.046614 -1.28815,1.529667 -0.57506,0.471551 -1.0121,0.621067 -0.43706,0.138024 -2.05874,0.678575 -1.62167,0.529057 -2.40376,0.655572 -0.62106,0.195522 -0.86259,0.195522 -0.092,0 -0.13797,-0.023 -0.092,-0.069 -0.092,-0.161025 0,-0.046 0.023,-0.103505 0.0691,-0.161025 0.34506,-0.36804 0.27601,-0.195522 0.67856,-0.471553 0.40254,-0.276029 0.9891,-0.747582 0.37956,-0.575063 0.67859,-1.161626 0.29903,-0.586563 0.44854,-0.931601 0.14945,-0.345038 0.32203,-0.885597 0.1726,-0.540559 0.26453,-1.575673 0.092,-1.035113 0.10352,-1.851701 0.0124,-0.828091 0.0124,-1.656182 v -2.530276 q 0.18401,-0.793588 0.60957,-2.300251 0.36803,-1.138626 0.50605,-1.541169 0.0459,-0.18402 0.13798,-0.18402 0.092,0 0.092,0.149525 0.023,0.172526 0.023,0.529057 0,0.35654 -0.023,0.885597 0.023,4.623506 0,5.85414 -0.0459,0.977607 -0.092,1.322645 z m 3.46188,-7.188286 h 0.0124 q 0.24153,0.01148 1.04662,0.667073 0.25303,0.207022 0.49456,0.46005 0.12649,0.161026 0.12649,0.287532 v 0.046 q 0,0.276029 -0.39103,0.885597 -0.19553,0.287531 -0.71309,0.828089 -0.39104,0.379543 -0.40254,0.379543 -0.19553,0.069 -0.27603,0.069 -0.36803,-0.069 -1.29965,-0.793587 -0.29903,-0.264529 -0.29903,-0.368039 v -0.0345 q 0,-0.287531 0.50606,-0.931601 0.33353,-0.471551 0.78209,-1.219132 0.23003,-0.276031 0.41404,-0.276031 z m -9.50004,13.295452 z m -0.57506,0 z m -0.57506,0 z m -0.57507,0 z m -0.46004,-6.245182 h -5.61262 V 76.43214 h 5.61262 z m -6.61322,6.245182 z m -0.57506,0 z m -0.57508,0 z m -2.16223,-3.220352 q -0.78209,1.759694 -1.15013,1.690685 0.13798,-0.529057 0.26453,-1.150125 0.12649,-0.621067 0.18401,-1.19613 0.0691,-0.575063 0.13797,-2.714297 0.0576,-2.139233 0.092,-2.817808 0.0344,-0.678575 0.10353,-1.219133 0.0805,-0.552061 0.40253,-1.564172 0.32204,-1.02361 0.8166,-2.173736 0.023,-0.01148 0.0459,-0.01148 0.0576,0 0.0806,0.069 0.0344,0.115006 0.023,0.161008 0,0.0345 -0.0691,0.333537 -0.0691,0.310535 -0.13797,1.035113 v 2.829309 q 0,0.609566 -0.11501,3.84142 -0.0124,0.529057 -0.19551,1.36865 -0.1726,0.828089 -0.48306,1.518165 z m -3.49638,-5.58961 q -0.0576,0.460051 -0.0806,0.609567 -0.023,0.149507 -0.10352,0.598065 -0.0806,0.460051 -0.14945,0.862595 -0.0691,0.402544 -0.16094,0.770584 -0.0806,0.356538 -0.27603,1.115622 -0.18403,0.759083 -0.43704,1.529667 -0.25303,0.759082 -0.66708,1.483661 -0.40254,0.713078 -0.69007,1.09262 -0.27603,0.36804 -0.9316,0.529058 -0.75909,0.172526 -1.38015,0.322035 -0.60957,0.161026 -1.32266,0.345038 -0.71307,0.184019 -0.81659,0.230025 -0.092,0.0345 -0.12649,0.0345 -0.12648,0 -0.26453,-0.230025 0.0344,-0.172526 0.27603,-0.391042 0.24153,-0.207024 0.7936,-0.586565 0.54056,-0.391042 1.59866,-1.127123 1.05812,-0.736081 2.62228,-2.058726 0.0459,-0.0575 0.1726,-0.356538 0.12649,-0.299032 0.36804,-1.219132 0.25303,-0.920101 0.46005,-1.828701 0.20703,-0.9086 0.27603,-1.207632 0.0806,-0.299033 0.19551,-0.621068 0.11501,-0.333536 0.40256,-0.345038 0.25303,0 0.25303,0.333537 0,0.0575 -0.0124,0.115006 z m -9.66104,-0.345037 q 0.25303,0.069 0.80507,0.517556 0.56356,0.448548 0.92011,1.173129 0.36804,0.713076 0.41404,1.495163 0.0124,0.138024 0.0124,0.276029 0,0.644072 -0.18403,1.265138 -0.21851,0.759084 -0.51754,1.345648 -0.29903,0.575063 -0.60957,1.081119 -0.31055,0.506054 -0.77058,1.035113 -0.43706,0.46005 -0.69009,0.517556 -0.25301,0.0575 -0.82808,0.218523 -0.57506,0.161025 -1.40315,0.414046 -0.81659,0.253028 -1.00062,0.310535 -0.0691,0.023 -0.12649,0.023 -0.0806,0 -0.13797,-0.0575 -0.023,-0.0345 -0.023,-0.0805 0,-0.092 0.11501,-0.241527 0.18401,-0.218523 1.12712,-0.851092 0.9431,-0.632569 2.01272,-1.380151 1.06961,-0.747582 1.55267,-1.161628 -0.41404,-1.690685 -2.04722,-2.357758 -0.1726,-0.046 -0.23003,-0.103504 -0.0459,-0.0345 -0.0459,-0.138025 0,-0.046 0.0124,-0.103505 0.21853,-0.713078 1.0121,-3.001827 0.092,-0.149525 0.24153,-0.207024 0.0574,-0.023 0.14946,-0.023 0.10352,0 0.24153,0.0345 z m -5.42862,6.141671 q -0.0459,0.126506 -0.62106,1.138624 -0.57506,1.000609 -1.16163,1.311144 -0.0344,0.0345 -0.33353,0.138024 -0.29903,0.092 -0.73609,0.230025 -0.43704,0.138007 -0.9431,0.287532 -0.49456,0.161007 -0.92009,0.287531 -0.42556,0.126506 -0.8166,0.207022 -0.12649,0.023 -0.21852,0.023 -0.18401,0 -0.20701,-0.092 -0.0344,-0.149525 0.31053,-0.425545 0.33353,-0.264531 0.75907,-0.552062 0.42556,-0.276029 1.41466,-0.966104 0.97761,-0.678575 2.47277,-1.713688 0.0806,-0.046 0.18401,-0.195522 0.092,-0.138007 0.20703,-0.241526 0.0459,-0.0345 0.0459,-0.103505 0,-0.126506 -0.11501,-0.333535 -0.0344,0 -0.12648,0.0345 -0.0806,0.023 -0.32205,0.115005 -0.18401,0.0805 -0.42554,0.0805 -0.0806,0 -0.16094,-0.01148 -0.33353,-0.0345 -0.65557,-0.207022 -0.32203,-0.172526 -0.59806,-0.494554 -0.27603,-0.333537 -0.34503,-0.64407 -0.0691,-0.310534 -0.0691,-0.667074 0,-0.310532 0.63257,-1.679183 0.50604,-1.38015 0.80509,-1.725188 0.31053,-0.345038 0.86259,-0.379541 0.40254,0 0.75907,0.287531 0.35654,0.276029 0.62107,0.759083 0.26453,0.483053 0.41406,1.115622 0.16093,0.632569 0.16093,1.322644 0,1.380151 -0.87409,3.093839 z m -6.15316,3.013328 z m -5.4171,-2.990326 q -0.71307,0.586565 -1.31113,0.621068 -0.31055,0.01148 -0.73609,-0.287531 -0.35653,-0.287532 -0.35653,-0.736081 v -0.01148 q 0,-0.701576 0.47154,-1.322645 0.47156,-0.632569 1.02362,-0.793587 0.0344,0.01148 0.0805,0.01148 0.94312,0.023 1.48366,-0.35654 0.55207,-0.379541 0.73609,-0.724579 0.0691,-0.138024 0.0691,-0.287532 0,-0.207022 -0.14946,-0.437047 -0.25303,-0.379541 -0.78209,-0.575063 -0.27603,-0.103505 -0.58656,-0.103505 -0.29903,0 -0.63257,0.09201 -0.70158,0.184019 -1.01212,1.000608 -0.0574,0.184021 -0.0574,0.299033 V 77.9273 q 0,0.149525 0.10352,0.425547 -0.0459,0.092 -0.10352,0.092 h -0.0124 q -0.18402,0 -0.42555,-0.632569 -0.092,-0.414046 -0.092,-0.851094 V 76.74266 q -0.32204,-0.609568 -0.32204,-1.173128 0,-1.012112 1.02362,-1.92071 0.092,-0.161026 0.25302,-0.46005 0.16093,-0.287532 0.66708,-0.954604 0.49456,-0.667075 1.0351,-1.173129 1.33416,-1.345647 3.17435,-2.955823 1.25365,-1.207632 2.6913,-2.748801 0.78209,-0.874095 0.9776,-1.069617 v 0.01148 q -0.16093,0.517557 -0.82809,1.978217 -0.70157,1.173128 -1.0121,1.552669 0,0.0575 -0.86259,0.989109 -1.42616,1.472161 -3.00184,2.886815 -1.32264,1.288141 -1.63317,1.541169 -0.31053,0.253028 -0.43705,0.414045 v 0.01148 h 0.0124 q 0.46006,-0.161026 0.97762,-0.161026 0.14945,0 0.29903,0.01148 0.67857,0.0575 1.26513,0.414046 0.50606,0.368041 0.64407,1.150126 0.0344,0.184019 0.0344,0.402544 0,0.736079 -0.34504,1.874704 -0.46004,1.506666 -1.0351,2.495773 -0.57506,0.977607 -1.28815,1.564171 z m -6.87775,-1.64468 v -4.830527 q 0.25303,-0.851094 0.46006,-1.529667 0.80509,-2.633789 0.9201,-2.633789 0.115,-0.01148 0.12648,0.138025 0.023,0.138024 0,0.27603 -0.0124,0.310533 -0.0691,0.782086 -0.0574,0.483053 -0.10352,1.621676 v 5.624106 q -0.0691,0.793588 -0.26453,1.437657 -0.19553,0.64407 -0.52906,1.265139 -0.33354,0.621068 -0.66707,1.069616 -0.26453,0.35654 -0.26453,0.44855 0,0.023 0.0124,0.0345 0.0344,0.023 0.16094,0.023 0.10352,0 0.24151,-0.01148 0.33355,-0.023 0.69009,-0.09201 0.35653,-0.0805 0.75907,-0.195522 0.41406,-0.126506 0.96612,-0.494553 0.55206,-0.368041 0.90859,-0.966105 0.36804,-0.609568 0.48306,-1.989718 v -6.751238 q 0.18401,-0.793586 0.56356,-2.047224 0.39104,-1.253635 0.58657,-1.828698 0.0124,-0.023 0.023,-0.0345 0.11501,-0.149507 0.17242,-0.149507 0.0344,0 0.0576,0.046 0.0345,0.092 0.0345,0.264529 0,0.092 -0.0124,0.195521 -0.0576,0.55206 -0.0806,1.09262 -0.0574,2.208241 -0.0574,3.599893 0,1.242135 0.0459,1.840201 0.0805,1.265138 0.29903,1.690685 0.13797,0.287531 0.27603,0.47155 0.14945,0.184022 0.33353,0.333538 0.18403,0.138024 0.42556,0.27603 0.24153,0.138007 0.56356,0.253027 0.51756,0.161025 0.60957,0.138024 -0.0691,0.839591 -0.29904,1.47216 -0.23002,0.621069 -0.58656,1.069619 -0.35653,0.437047 -0.78209,0.402544 -0.33353,-0.0575 -0.58656,-0.195522 -0.12649,-0.0575 -0.32204,-0.195522 -0.17259,-0.115005 -0.35653,-0.299032 -0.0459,-0.0345 -0.0806,-0.0345 -0.0344,0 -0.10352,0.0805 -0.11501,0.161026 -0.36804,0.563563 -0.42555,0.644069 -0.93159,1.322644 -0.50606,0.678573 -1.21915,1.391652 -0.70157,0.713078 -1.15012,0.966106 -0.44854,0.253028 -0.65557,0.253028 -1.69069,-0.966106 -2.31175,-1.886207 -0.0459,-0.126506 -0.0459,-0.218525 0,-0.368038 0.62106,-0.402543 0.16094,0 0.37954,0.01148 0.50606,-0.759084 0.60956,-1.058116 0.11501,-0.310534 0.26453,-0.839591 0.16094,-0.529059 0.25303,-1.771194 z m -5.73913,-8.717952 q 0.58657,0.207022 1.48366,0.816589 0.74759,0.506056 0.74759,1.127122 0,0.09201 -0.0124,0.138025 -0.19553,0.897097 -0.63257,1.575672 -0.28753,0.437048 -0.63258,0.736081 -0.33354,0.299032 -0.69007,0.529057 -0.35654,0.218525 -0.9431,0.425547 -0.86259,0.310535 -1.32265,0.414045 -0.46006,0.115005 -1.23063,0.322035 -0.75909,0.195521 -1.57568,0.575062 -0.79358,0.483054 -1.29964,1.092622 -0.50605,0.598063 -0.72458,1.506663 -0.21853,0.897098 -0.32204,2.081727 -0.10352,1.173129 -0.10352,2.783305 v 6.187677 q 0,0.0345 -0.0344,0.333535 -0.0459,0.299034 -0.092,0.839592 -0.0459,0.529059 -0.12649,0.989109 -0.0806,0.471551 -0.16093,0.805088 -0.0691,0.345037 -0.24153,0.540559 l -0.21851,-4.715515 v -4.681012 q 0,-1.36865 0.12649,-2.495773 0.13797,-1.127122 0.47155,-2.185238 0.34504,-1.058116 0.78209,-2.070227 0.20701,-0.483053 0.58657,-1.069618 0.39103,-0.632569 1.0006,-1.322644 0.60956,-0.690076 1.00062,-1.012111 0.40253,-0.322034 0.86259,-0.598065 0.47154,-0.287532 1.20763,-0.517557 1.0121,-2.058724 1.69069,-3.070834 0.10352,-0.161025 0.40253,-0.0805 z m -0.47154,10.16711 q -0.19552,0.402544 -0.40255,0.609568 -0.20703,0.207022 -0.54056,0.379541 -0.34504,0.161008 -0.8741,0.448548 -0.52906,0.287533 -1.34563,0.736081 -0.1726,0.103505 -0.25303,0.103505 -0.0459,0 -0.0459,-0.046 0,-0.0345 0.023,-0.09201 0.092,-0.253028 0.28753,-0.529057 0.19551,-0.276031 0.56357,-0.483053 0.36803,-0.207024 0.58656,-0.310534 0.20701,-0.103505 0.48304,-0.253028 0.27603,-0.149507 0.58656,-0.310534 0.29904,-0.161008 0.55206,-0.310535 0.25303,-0.138006 0.41406,-0.241525 0.16094,-0.103505 -0.0344,0.299032 z m -9.38503,3.185848 z m -2.16224,-3.220352 q -0.78208,1.759694 -1.15013,1.690685 0.13797,-0.529057 0.26453,-1.150125 0.12649,-0.621067 0.18403,-1.19613 0.0691,-0.575063 0.13797,-2.714297 0.0576,-2.139233 0.092,-2.817808 0.0345,-0.678575 0.10352,-1.219133 0.0806,-0.552061 0.40256,-1.564172 0.32203,-1.02361 0.81657,-2.173736 0.023,-0.01148 0.0459,-0.01148 0.0574,0 0.0806,0.069 0.0345,0.115006 0.023,0.161008 0,0.0345 -0.0691,0.333537 -0.0691,0.310535 -0.13797,1.035113 v 2.829309 q 0,0.609566 -0.11501,3.84142 -0.0124,0.529057 -0.19552,1.36865 -0.17242,0.828089 -0.48306,1.518165 z m -4.05994,-1.817198 q -0.14946,0.655572 -0.46004,1.207632 -0.31054,0.54056 -0.63259,0.943104 -0.32203,0.402544 -0.47154,0.391043 -0.0124,0.01148 -0.0344,0.01148 -0.0806,0 -0.32203,-0.218525 -0.14945,-0.126506 -0.14945,-0.276029 0,-0.138024 0.12648,-0.287531 0.11501,-0.138024 0.23002,-0.264529 0.115,-0.115005 0.39105,-0.437049 0.27603,-0.333535 0.37954,-0.874095 0.0344,-0.172526 0.0344,-0.299032 0,-0.299033 -0.16093,-0.437049 -0.1726,-0.138006 -0.25303,-0.138006 -0.023,0 -0.0345,0.01148 -0.0691,0.0575 -0.29903,0.195522 -0.23003,0.138024 -0.48306,0.138024 -0.43706,0 -0.75909,-0.161025 -0.33353,-0.172526 -0.52906,-0.414044 -0.20701,-0.241528 -0.29903,-0.506056 -0.10353,-0.264529 -0.10353,-0.44855 0,-0.287532 0.50606,-1.55267 l 0.43704,-1.10412 q 0.1726,-0.425547 0.47156,-0.598065 0.21853,-0.126506 0.48306,-0.126506 0.10352,0 0.20701,0.023 0.37955,0.069 0.67858,0.35654 0.29904,0.287531 0.55207,0.736079 0.25301,0.437049 0.42553,1.00061 0.1726,0.55206 0.21853,1.288141 0.0124,0.161025 0.0124,0.322035 0,0.598065 -0.10352,1.230634 -0.023,0.149525 -0.0576,0.287532 z m 0.54056,-11.144718 q 0.37953,0.069 1.47216,1.069617 0.14945,0.230025 0.14945,0.345037 v 0.103505 q -0.12649,0.782085 -1.47216,2.024221 -0.16094,0.069 -0.26453,0.069 -0.23003,0 -1.46066,-0.920102 l -0.17259,-0.069 q -0.18403,0 -1.46066,1.46066 -0.092,0.09201 -0.25303,0.161026 -0.34504,0 -1.55266,-1.058116 l -0.10353,-0.138025 v -0.069 q 0.0459,-0.483053 1.31115,-2.127734 0.25303,-0.230025 0.36804,-0.230025 h 0.0344 q 0.21853,0 1.35715,1.058116 0.20703,0.161025 0.29903,0.161025 h 0.0691 q 0.66708,-0.644071 1.24214,-1.55267 0.23002,-0.287531 0.43704,-0.287531 z m -9.36202,15.710717 v -0.01148 q 0,-0.724581 0.58657,-1.380151 0.65556,-0.667075 1.17312,-0.667075 0.43704,0.0805 0.8971,0.069 0.47154,-0.023 0.9316,-0.218525 0.46005,-0.207022 1.09262,-0.736079 0.63257,-0.529059 0.86259,-0.609568 0.12649,-0.046 0.28754,-0.046 0.092,0 0.20702,0.023 0.27603,0.0575 0.58657,0.230025 0.13797,0.0805 0.31053,0.0805 0.20701,0 0.47154,-0.115006 0.023,-0.01148 0.0459,-0.01148 0.10352,0 0.29903,0.149507 0.23001,0.195522 0.24151,0.333538 0.023,0.138024 -0.36803,0.575062 -0.37954,0.437048 -0.78209,0.713079 -0.40254,0.276029 -0.66707,0.310532 -0.10352,0.023 -0.19553,0.023 -0.12648,0 -0.21851,-0.046 -0.14945,-0.069 -0.54056,-0.195522 -0.18402,-0.0575 -0.36805,-0.0575 -0.19551,0 -0.37954,0.069 -0.35653,0.149525 -0.69006,0.437047 -0.33354,0.276031 -0.7936,0.851094 -0.47155,0.575063 -0.93159,0.897098 -0.36806,0.276031 -0.78209,0.35654 -0.10353,0.01148 -0.19553,0.023 -0.60956,0 -0.86259,-0.356538 -0.26453,-0.356539 -0.21851,-0.690076 z m 2.67979,2.806308 h 0.0124 q 0.24153,0.01148 1.04662,0.667072 0.25301,0.207022 0.49454,0.46005 0.12649,0.161008 0.12649,0.287532 v 0.046 q 0,0.276031 -0.39106,0.885597 -0.19551,0.287532 -0.71307,0.828091 -0.39103,0.379541 -0.40253,0.379541 -0.19553,0.069 -0.27603,0.069 -0.36806,-0.069 -1.29965,-0.793587 -0.29904,-0.264529 -0.29904,-0.368041 v -0.0345 q 0,-0.287532 0.50606,-0.931601 0.33354,-0.471553 0.78208,-1.219135 0.23002,-0.276029 0.41405,-0.276029 z M 245.609,72.970261 q 1.25363,-2.967324 1.28813,-2.967324 h 0.023 q 0.0344,0 0.0576,0.149507 -0.44855,5.302081 -0.49456,7.073273 -0.023,0.713078 -0.023,1.230635 0,0.770584 0.0459,1.092619 0.0574,0.598066 0.25303,1.058116 0.20701,0.46005 0.60956,0.805088 0.41404,0.333537 0.9316,0.494554 0.52906,0.161025 0.62107,0.138024 0.023,0.218525 0.023,0.437047 0,0.63257 -0.18401,1.173129 -0.24153,0.736081 -0.66708,1.046614 -0.41404,0.322036 -0.8396,0.287531 -0.29903,-0.0575 -0.58656,-0.19552 -0.28753,-0.126524 -0.66707,-0.575063 -0.37953,-0.448549 -0.58656,-1.391653 -0.18403,-0.782085 -0.18403,-2.081727 0,-0.264528 0.0124,-0.563562 0.0459,-1.702185 0.36805,-7.211288 z m -11.25972,12.766395 q 0.63256,-0.046 1.20762,-0.218523 0.31054,-0.09201 0.60957,-0.230025 1.32265,-0.609566 2.09322,-1.357148 0.78209,-0.747582 1.10413,-1.184631 0.32203,-0.448548 0.55206,-0.862594 0.24153,-0.425545 0.42554,-0.966105 0.13797,-0.414046 0.21852,-1.345647 0.0806,-0.943103 0.0691,-2.725798 0,-1.782695 -0.0459,-3.956433 -0.0345,-1.19613 -0.0345,-1.863202 0,-0.54056 0.023,-0.724581 0.0344,-0.425545 0.092,-0.966104 0.0691,-0.55206 0.51755,-2.208242 0.44855,-1.656181 0.50605,-1.874704 0.0459,-0.207024 0.092,-0.276031 0.0576,-0.0805 0.12649,-0.126506 0.023,-0.01148 0.0344,-0.01148 0.0459,0 0.0691,0.0805 0.0124,0.0345 0.0124,0.115005 0,0.149507 -0.0459,0.437048 -0.0806,0.437047 -0.092,2.564781 -0.0124,2.11623 0.0344,3.737909 0.023,0.977606 0.023,1.93221 0,0.64407 -0.0124,1.276639 -0.023,1.598675 -0.13797,2.898317 -0.11501,1.299642 -0.35654,2.139235 -0.24153,0.828089 -0.60956,1.886205 -0.36804,1.058116 -0.9431,2.150735 -0.57506,1.092619 -1.52966,2.196739 -0.95462,1.115623 -1.78271,1.679185 -0.81659,0.575063 -1.9437,0.874095 -0.64408,0.161025 -1.32265,0.161025 -0.51756,0 -1.04662,-0.092 -1.23063,-0.230026 -2.09323,-1.253638 -0.85109,-1.01211 -0.95459,-2.415264 -0.0344,-0.402544 -0.0344,-0.793587 0,-0.966105 0.20701,-1.863202 0.27603,-1.276641 0.70158,-2.311754 0.42554,-1.046614 0.65557,-1.47216 0.37954,-0.701576 0.9661,-1.621679 l 0.0459,-0.0575 h 0.0691 q 0.115,0 0.13797,0.161025 v 0.046 q 0,0.345038 -0.70157,1.840201 -0.44856,1.138623 -0.51756,1.357148 -0.28753,0.989107 -0.28753,1.656182 0,1.092619 0.31053,1.748189 0.32203,0.644072 0.75909,1.00061 0.43704,0.35654 0.81659,0.529059 0.39104,0.172526 0.9201,0.253026 0.54056,0.092 1.09262,0.0575 z"
       id="text3"
       aria-label="کشف الالفاظ    -   اردو کلامِ اقبال" />
  </g>
</svg>
